<svg version="1.1" id="Layer_1" xmlns="http://www.w3.org/2000/svg" xmlns:xlink="http://www.w3.org/1999/xlink" x="0px" y="0px"
	 width="100%" viewBox="0 0 352 352" enable-background="new 0 0 352 352" xml:space="preserve">
<path fill="#000000" opacity="1.000000" stroke="none" 
	d="
M208.206696,176.340271 
	C211.283966,174.119690 213.540176,176.136932 215.898712,177.160446 
	C240.571655,187.867661 267.806549,170.501480 267.645874,144.148117 
	C267.539520,126.703255 254.990616,111.810410 237.651978,108.551758 
	C220.702164,105.366180 203.470169,115.318939 197.261459,131.701706 
	C196.099792,134.766983 196.434280,136.833435 198.913910,139.170319 
	C206.987015,146.778702 209.372940,156.260529 207.127380,166.985703 
	C206.447144,170.234665 205.072601,172.906921 201.268982,173.582199 
	C197.633743,174.227585 196.203445,171.673294 194.630219,169.363449 
	C189.732086,162.171936 187.151321,154.188538 186.737106,145.499771 
	C186.509293,140.720825 184.865280,139.221176 179.277893,139.490067 
	C175.732483,139.660675 172.003143,139.479156 171.919968,145.171036 
	C171.783340,154.520355 168.825821,163.157242 163.139694,170.725327 
	C161.645905,172.713516 160.306274,175.054901 157.255615,174.572632 
	C154.099731,174.073746 153.077042,171.488312 152.271011,168.918243 
	C148.758255,157.717819 151.068909,147.758179 159.458237,139.609940 
	C162.187134,136.959473 162.693436,134.798645 161.393234,131.406906 
	C155.214050,115.287796 137.597717,105.350533 120.740532,108.657539 
	C102.813423,112.174438 91.019051,127.159042 91.296700,146.065567 
	C91.538246,162.513504 104.494141,176.955734 121.233101,179.928589 
	C129.136017,181.332138 136.430130,180.018936 143.541245,176.698898 
	C145.339523,175.859314 147.068878,174.759796 149.220413,175.569244 
	C150.630981,176.099930 151.376892,177.145096 151.587708,178.531464 
	C151.946655,180.891922 150.489365,182.247131 148.654510,183.269775 
	C139.567520,188.334320 129.788086,189.857239 119.678070,187.976547 
	C115.168877,187.137741 111.116943,186.045914 107.325623,189.686172 
	C106.333778,190.638474 104.699478,191.016037 103.039749,190.030960 
	C103.498436,187.287552 106.523384,187.106659 107.743225,184.839020 
	C107.198250,183.245834 105.237541,182.801483 103.797073,181.871597 
	C92.344826,174.478760 85.550163,164.054779 83.653824,150.603470 
	C83.024277,146.137833 80.614090,143.741714 76.624481,142.569473 
	C74.391251,141.913269 72.352699,141.202927 72.764862,138.337418 
	C73.194656,135.349380 72.461304,131.721878 76.489944,130.435013 
	C83.237793,128.279526 87.698280,123.890327 91.861076,118.019791 
	C101.435226,104.517937 115.300964,98.279205 131.773804,100.024704 
	C149.220825,101.873413 161.554794,111.531593 168.736832,127.610466 
	C169.343124,128.967804 169.861008,130.364670 170.570068,132.113388 
	C175.851974,131.481003 181.099625,131.188858 186.376694,131.912842 
	C189.498093,132.341110 189.298996,129.187256 190.042572,127.414963 
	C197.246384,110.245262 214.094238,98.984947 232.582214,99.802704 
	C247.230591,100.450623 259.449890,106.633148 267.557098,118.993187 
	C271.073303,124.353912 275.056458,128.303543 281.069946,129.819077 
	C286.074860,131.080429 285.444733,135.116440 286.011658,138.478226 
	C286.627747,142.131424 283.180481,141.950043 281.055481,142.855225 
	C277.610931,144.322479 275.642578,146.334091 275.175934,150.549545 
	C271.879395,180.328598 236.613861,198.358521 210.712234,183.690918 
	C207.915710,182.107300 205.523254,180.270554 208.206696,176.340271 
M196.834839,149.581635 
	C195.967941,148.343857 195.135483,148.211578 195.499084,149.977966 
	C196.227066,153.514374 197.049423,157.078400 199.565674,160.650818 
	C199.689224,156.439255 198.872910,153.157364 196.834839,149.581635 
M163.037399,149.985916 
	C163.042526,149.508774 163.047638,149.031647 163.052750,148.554504 
	C162.894882,148.576721 162.648087,148.541931 162.591965,148.629425 
	C160.531281,151.842514 159.002731,155.206589 159.467163,159.994308 
	C161.720551,156.659576 162.560074,153.708771 163.037399,149.985916 
z"/>
<path fill="#000000" opacity="1.000000" stroke="none" 
	d="
M117.708702,195.968353 
	C121.985268,197.687668 123.952057,200.675003 123.103279,204.739349 
	C122.401764,208.098557 119.396278,209.645721 116.256439,209.173965 
	C113.862305,208.814270 109.642456,211.936539 109.291054,207.634308 
	C108.989639,203.943970 109.016678,199.148376 113.570465,196.824310 
	C114.744713,196.225037 115.912094,195.519638 117.708702,195.968353 
z"/>
<path fill="#000000" opacity="1.000000" stroke="none" 
	d="
M139.517471,210.550598 
	C142.518723,215.850815 140.721558,221.115097 135.709106,222.143311 
	C133.573181,222.581467 130.558609,223.295761 129.408234,220.823380 
	C128.151337,218.122070 126.720985,215.057541 128.484955,211.835907 
	C129.955963,209.149307 132.494736,208.856934 135.109650,208.720474 
	C136.676041,208.638718 137.954575,209.457779 139.517471,210.550598 
z"/>
<path fill="#000000" opacity="1.000000" stroke="none" 
	d="
M173.184647,49.017113 
	C169.598343,46.413200 168.478989,43.238567 170.461090,39.721191 
	C172.819534,35.535984 177.138062,36.160088 180.693420,37.187660 
	C185.119156,38.466789 182.168945,42.280666 182.172134,44.874207 
	C182.176010,48.013844 180.070175,50.035885 176.801056,50.204506 
	C175.729370,50.259785 174.619659,49.578350 173.184647,49.017113 
z"/>
<path fill="#000000" opacity="1.000000" stroke="none" 
	d="
M246.053574,198.925507 
	C248.835098,202.244217 249.122238,205.367386 245.873917,207.893982 
	C243.383682,209.830933 240.468903,211.507019 237.299469,208.896561 
	C233.792313,206.007965 233.857117,202.665894 237.535736,196.343613 
	C240.327942,196.841354 243.524231,195.945770 246.053574,198.925507 
z"/>
<path fill="#000000" opacity="1.000000" stroke="none" 
	d="
M95.982414,85.273094 
	C98.526611,81.376991 101.798470,82.581650 104.868240,83.576210 
	C107.702965,84.494614 109.177200,86.900642 109.105675,89.712799 
	C109.015862,93.244003 106.139008,94.668159 103.254807,95.717773 
	C99.997665,96.903084 96.511932,94.828224 95.870033,91.169174 
	C95.561447,89.410110 95.904190,87.536797 95.982414,85.273094 
z"/>
<path fill="#000000" opacity="1.000000" stroke="none" 
	d="
M213.618011,54.466568 
	C213.781448,47.839504 218.546677,49.698311 221.660400,49.920006 
	C224.687134,50.135509 227.387527,51.782478 226.725327,55.814915 
	C225.971161,60.407341 222.726578,63.075638 218.403091,62.232147 
	C214.441269,61.459221 212.047943,59.380241 213.618011,54.466568 
z"/>
<path fill="#000000" opacity="1.000000" stroke="none" 
	d="
M185.071259,230.541260 
	C182.692978,236.648148 178.319748,236.510300 173.375107,234.904449 
	C173.698883,231.570969 169.605774,228.110733 173.405365,224.579697 
	C174.487625,223.573929 175.307770,222.164948 176.894745,221.910141 
	C181.462082,221.176788 184.663345,224.393433 185.071259,230.541260 
z"/>
<path fill="#000000" opacity="1.000000" stroke="none" 
	d="
M114.823929,76.224152 
	C108.513550,74.962120 105.733765,71.463921 107.372284,67.312233 
	C108.608772,64.179245 111.123093,62.847126 114.358109,62.699673 
	C117.613609,62.551281 119.194649,64.693733 119.965103,67.348427 
	C120.840378,70.364326 120.611069,73.306053 117.480141,75.156784 
	C116.775017,75.573578 115.981956,75.841583 114.823929,76.224152 
z"/>
<path fill="#000000" opacity="1.000000" stroke="none" 
	d="
M124.962196,49.898861 
	C127.755196,45.263004 131.844299,47.562466 134.937912,48.429577 
	C137.883423,49.255184 139.049484,52.851456 138.059647,55.930645 
	C136.890137,59.568733 133.661957,60.479450 130.091019,60.317116 
	C126.434250,60.150887 125.672394,57.306568 125.005981,54.599186 
	C124.668793,53.229336 124.989143,51.697639 124.962196,49.898861 
z"/>
<path fill="#000000" opacity="1.000000" stroke="none" 
	d="
M229.244049,215.893250 
	C230.772797,220.523743 228.170776,223.052933 225.350601,225.476990 
	C223.777878,226.828796 222.249664,226.091782 220.788391,225.264252 
	C217.739838,223.537811 216.626343,220.788361 216.687637,217.403076 
	C216.732437,214.929184 217.932373,213.454285 220.259521,212.701126 
	C223.933411,211.512115 227.006927,212.036621 229.244049,215.893250 
z"/>
<path fill="#000000" opacity="1.000000" stroke="none" 
	d="
M238.658173,61.700001 
	C242.763779,61.888390 246.196350,61.898239 245.448822,67.549713 
	C244.931046,71.464088 243.903870,74.584915 239.813034,75.097778 
	C236.013077,75.574181 233.494034,73.188042 232.833038,69.507179 
	C232.079819,65.312851 233.738663,62.401184 238.658173,61.700001 
z"/>
<path fill="#000000" opacity="1.000000" stroke="none" 
	d="
M160.100372,46.318405 
	C159.030685,50.710548 156.931793,53.536919 152.215134,53.313797 
	C148.892517,53.156620 147.713608,50.725658 146.926758,48.173557 
	C145.798004,44.512558 148.219376,41.183212 152.067978,40.701523 
	C158.585342,39.885807 159.486786,40.479870 160.100372,46.318405 
z"/>
<path fill="#000000" opacity="1.000000" stroke="none" 
	d="
M202.339600,51.719604 
	C196.031082,52.400955 192.366043,49.288750 193.289627,44.436035 
	C193.857376,41.452904 195.567581,39.271023 198.680099,38.761883 
	C202.184509,38.188644 204.250153,40.341236 205.572159,43.201023 
	C207.233627,46.795113 205.995071,49.551510 202.339600,51.719604 
z"/>
<path fill="#000000" opacity="1.000000" stroke="none" 
	d="
M246.526199,92.550629 
	C243.842667,90.444771 242.810471,87.946983 244.102402,85.264572 
	C245.463242,82.438988 248.051788,80.701096 251.327576,80.796249 
	C254.222839,80.880363 255.463898,83.168007 256.608795,85.466415 
	C258.152985,88.566444 256.293701,90.598160 254.323196,92.389709 
	C252.057129,94.449959 249.475647,95.357475 246.526199,92.550629 
z"/>
<path fill="#000000" opacity="1.000000" stroke="none" 
	d="
M194.791809,225.737793 
	C194.704224,221.380219 197.604645,219.987564 200.622620,218.931046 
	C203.192474,218.031403 205.132446,219.428909 206.566727,221.445358 
	C208.922058,224.756699 208.952316,227.725021 205.428772,230.469131 
	C201.846115,233.259277 199.020111,232.254822 196.459961,229.185165 
	C195.738800,228.320465 195.373245,227.159180 194.791809,225.737793 
z"/>
<path fill="#000000" opacity="1.000000" stroke="none" 
	d="
M151.121613,220.886902 
	C154.780258,218.874313 157.849747,219.098862 160.207748,222.192307 
	C161.974213,224.509705 161.908340,227.109390 160.243271,229.508408 
	C157.770721,233.070847 154.565536,233.686005 151.446426,231.317764 
	C147.890869,228.618210 147.675507,225.280212 151.121613,220.886902 
z"/>
</svg>